<svg xmlns="http://www.w3.org/2000/svg" width="960" height="600" viewBox="0 0 960 600" role="img" aria-label="Writer Grid preview">
  <rect width="960" height="600" fill="#f6f6f3"/>
  <rect x="72" y="58" width="816" height="484" fill="#fff" stroke="#e9e9e6"/>
  <rect x="112" y="102" width="260" height="28" fill="#444"/>
  <rect x="112" y="146" width="360" height="12" fill="#d9d9d6"/>
  <rect x="112" y="196" width="210" height="142" fill="#f0f0ec"/>
  <rect x="352" y="196" width="210" height="142" fill="#f0f0ec"/>
  <rect x="592" y="196" width="210" height="142" fill="#f0f0ec"/>
  <rect x="132" y="220" width="130" height="18" fill="#467b96"/>
  <rect x="132" y="254" width="150" height="10" fill="#d9d9d6"/>
  <rect x="132" y="276" width="112" height="10" fill="#d9d9d6"/>
  <rect x="372" y="220" width="132" height="18" fill="#467b96"/>
  <rect x="372" y="254" width="150" height="10" fill="#d9d9d6"/>
  <rect x="372" y="276" width="112" height="10" fill="#d9d9d6"/>
  <rect x="612" y="220" width="132" height="18" fill="#467b96"/>
  <rect x="612" y="254" width="150" height="10" fill="#d9d9d6"/>
  <rect x="612" y="276" width="112" height="10" fill="#d9d9d6"/>
  <rect x="112" y="374" width="690" height="12" fill="#e9e9e6"/>
  <rect x="112" y="406" width="590" height="12" fill="#e9e9e6"/>
  <rect x="112" y="438" width="640" height="12" fill="#e9e9e6"/>
</svg>
